<svg version="1.1" id="Layer_1" xmlns="http://www.w3.org/2000/svg" x="0" y="0" viewBox="0 0 245.78 190.22" style="enable-background:new 0 0 245.78 190.22" xml:space="preserve"><style>.st0{fill:#b2b2b2}.st1{fill:#575756}.st2{fill:#706f6f}.st3{fill:#36a9e1}.st4{fill:#fff}.st5{fill:#3c3c3b}.st6{fill:none;stroke:#fff;stroke-width:2px;stroke-miterlimit:10}.st7{fill:#2c86b0}.st8{fill:#9d9d9c}.st9{opacity:.4;fill:#9d9d9c}</style><path d="M173.31 36.75c6.93-7.7 12.51-7.38 18.95.78 4.61-5.82 8.29-7.47 13-5.7 4.42 1.66 6.72 5.05 6.55 9.63-.18 4.59-2.82 7.77-7.32 9.06-4.86 1.4-8.42-.55-12.11-6.42-5.85 8.65-11.78 9.18-19.07 1.34-2.79 2.98-5.69 6.03-10.35 5.43-2.58-.34-4.77-1.39-6.45-3.43-3.6-4.36-3.15-10.17 1.1-13.84 4.75-4.09 9.85-3.12 15.7 3.15zM173.14 159.68c-.76.88-1.44 1.82-2.27 2.6-4.13 3.94-9.93 3.91-13.86-.03-3.79-3.8-3.94-9.53-.35-13.48 3.58-3.93 10.04-4.45 13.82-.53 2.25 2.33 3.19 2.5 5.5.04 3.64-3.87 9.12-3.71 13.42.15 1.88 1.69 2.76 1.9 4.76.11 4.56-4.09 10.61-3.8 14.24.21 3.57 3.94 3.45 9.78-.27 13.53-4 4.02-9.42 3.9-14.25-.33-1.04-.91-1.47-2.42-3.5-.81-7.46 5.93-10.64 5.56-17.24-1.46zM48.53 79.63c-3.03.55-5.6-4.79-8.36-4.45-2.86.36-5.29 4.54-9.4 4.34-4.51-.21-7.71-2.33-8.94-6.59-1.24-4.3-.36-8.31 3.58-11.04 4.06-2.82 8.41-2.67 11.92.56 2.48 2.28 3.6 2.36 6.11.02 3.5-3.26 7.85-3.43 11.88-.52 3.79 2.74 5.01 6.57 3.58 11-1.39 4.25-4.54 6.37-10.37 6.68zM97.51 123.67c3.87-5.96 7.78-7.94 12.54-6.4 4.44 1.44 6.79 4.66 6.95 9.29.16 4.41-2.99 8.35-7.33 9.54-4.46 1.22-8.38-.78-12.19-6.59-1.46 2.52-2.99 4.77-5.62 5.91-2.77 1.21-5.42 1.27-8.16-.01-4.11-1.92-6.01-5.34-5.69-9.62.32-4.31 2.79-7.43 7.12-8.63 4.88-1.35 8.63.62 12.38 6.51zM230.33 126.27c.11 5.6-3.9 9.91-9.43 10.13-5.4.21-10.25-4.54-10.22-10.03.03-5.02 4.39-9.33 9.63-9.5 5.64-.18 9.91 3.82 10.02 9.4zM107.13 145.55c5.37-.05 9.81 4.33 9.89 9.75.08 5.33-4.39 9.9-9.73 9.93-5.37.03-9.75-4.36-9.81-9.82-.06-5.56 4.09-9.81 9.65-9.86zM40.03 40.9c.05 5.35-4.38 9.91-9.69 9.98-5.49.06-9.81-4.18-9.86-9.67-.05-5.48 4.21-9.93 9.59-10.02 5.26-.09 9.91 4.44 9.96 9.71zM117.01 41.02c.04 5.34-4.45 9.86-9.79 9.85-5.51-.01-9.75-4.28-9.74-9.8.01-5.47 4.34-9.87 9.71-9.9 5.34-.01 9.78 4.43 9.82 9.85zM221.1 88.88c5.53.19 9.47 4.55 9.21 10.19-.26 5.56-4.58 9.54-10.15 9.33-5.29-.2-9.75-5.04-9.43-10.23.32-5.35 4.93-9.47 10.37-9.29zM154.13 97.7c.02 5.63-4.03 9.73-9.63 9.77-5.42.04-9.85-4.28-9.9-9.64-.05-5.34 4.39-9.84 9.76-9.88 5.39-.03 9.75 4.31 9.77 9.75zM21.41 126.69c-.05-5.74 3.91-9.81 9.54-9.82 5.49-.01 9.92 4.25 9.99 9.6.07 5.27-4.44 9.88-9.72 9.94-5.4.06-9.76-4.26-9.81-9.72zM106.29 107.48c-5.45-.03-9.77-4.36-9.75-9.78.02-5.34 4.52-9.78 9.88-9.74 5.38.04 9.65 4.43 9.66 9.9 0 5.54-4.18 9.65-9.79 9.62zM154.12 126.48c.04 5.47-4.21 9.86-9.6 9.92-5.29.06-9.88-4.43-9.93-9.71-.06-5.35 4.29-9.73 9.75-9.83 5.54-.08 9.74 4.05 9.78 9.62zM31.1 145.65c5.42.05 9.9 4.49 9.83 9.74-.07 5.25-4.73 9.88-9.9 9.82-5.43-.06-9.65-4.41-9.61-9.9.04-5.69 4.07-9.71 9.68-9.66zM106.46 79.51c-5.58-.01-9.93-4.29-9.91-9.75.02-5.37 4.56-9.79 10.01-9.74 5.37.05 9.64 4.59 9.53 10.14-.13 5.45-4.15 9.36-9.63 9.35zM154.12 69.8c0 5.75-4.05 9.79-9.75 9.71-5.32-.07-9.64-4.23-9.75-9.39-.12-5.59 4.59-10.26 10.17-10.1 5.2.15 9.33 4.49 9.33 9.78zM220.43 79.51c-5.51-.11-9.91-4.63-9.72-9.97.19-5.19 5.14-9.75 10.34-9.51 5.17.24 9.29 4.63 9.28 9.9-.01 5.62-4.22 9.69-9.9 9.58zM68.84 88.88c5.46-.11 9.96 4.06 10.15 9.43.19 5.31-4.14 9.91-9.5 10.09-5.44.18-9.82-3.98-10-9.49-.19-5.58 3.86-9.92 9.35-10.03zM30.06 88.89c5.42-.08 9.95 4.33 9.97 9.71.03 5.39-4.47 9.84-9.89 9.81a9.713 9.713 0 0 1-9.66-9.47c-.14-5.49 4.12-9.97 9.58-10.05z"/></svg>